<svg width="505" height="119" viewBox="0 0 505 119" fill="none" xmlns="http://www.w3.org/2000/svg">
<path d="M54.7049 10.2989C56.9626 15.8005 57.1598 28.9588 56.923 39.1008C56.775 45.4391 50.3201 49.2418 44.929 46.1466C36.0541 41.0512 24.7027 33.8243 21.337 28.4856C16.4439 19.0285 19.9469 7.29069 29.1612 2.26857C38.3755 -2.75356 49.8118 0.841744 54.7049 10.2989Z" fill="#00C978"/>
<path d="M54.7049 108.701C56.9626 103.199 57.1598 90.0412 56.923 79.8992C56.775 73.5609 50.3201 69.7582 44.929 72.8534C36.0541 77.9488 24.7027 85.1757 21.337 90.5144C16.4439 99.9715 19.9469 111.709 29.1612 116.731C38.3755 121.754 49.8118 118.158 54.7049 108.701Z" fill="#19A873"/>
<path d="M18.869 40.742C24.6627 41.269 36.0846 47.2483 44.7064 52.2096C50.0946 55.3102 50.3479 62.9446 45.1598 66.3858C36.619 72.0509 25.0839 78.9646 18.912 79.5188C8.47906 79.531 0.0118798 70.8604 1.24878e-05 60.1525C-0.0118549 49.4445 8.43608 40.7542 18.869 40.742Z" fill="#19A873"/>
<path d="M139.88 73.4399C139.88 59.2799 152.24 54.72 163.76 53.52L173.84 52.56C177.68 52.32 179.6 50.88 179.6 47.6399C179.6 43.0799 175.28 40.2 169.52 40.2C163.04 40.2 158.84 43.68 157.76 49.56L141.68 45.9599C143.36 35.2799 153.56 26.8799 169.4 26.8799C184.4 26.8799 195.8 34.5599 195.8 50.88V90H179.6V74.64C176.12 85.8 169.04 91.2 158.24 91.2C148.52 91.2 139.88 84.36 139.88 73.4399ZM156.08 72.1199C156.08 75.8399 159.08 78.36 164 78.36C172.52 78.36 179.6 71.52 179.6 64.08V62.52C178.52 63.48 176.84 63.96 174.08 64.32L163.64 65.52C158.96 66.12 156.08 68.5199 156.08 72.1199Z" fill="#00C978"/>
<path d="M199.48 90V28.0799H215.68V43.92C218.92 33.48 226.84 26.8799 237.16 26.8799C250.96 26.8799 259.96 37.6799 259.96 52.4399V90H243.76V55.32C243.76 47.28 238 41.6399 230.32 41.6399C221.68 41.6399 215.68 47.28 215.68 55.32V90H199.48Z" fill="#00C978"/>
<path d="M263.48 90V1.19995H279.68V45.84C283.28 34.44 291.44 26.8799 302.48 26.8799C317.84 26.8799 329.12 40.7999 329.12 59.04C329.12 77.28 317.84 91.2 302.48 91.2C291.44 91.2 283.28 83.64 279.68 72.24V90H263.48ZM279.68 59.04C279.68 69 286.76 76.32 296.6 76.32C305.36 76.32 312.32 69 312.32 59.04C312.32 49.2 305.36 41.76 296.6 41.76C286.76 41.76 279.68 49.2 279.68 59.04Z" fill="#00C978"/>
<path d="M328.88 73.4399C328.88 59.2799 341.24 54.72 352.76 53.52L362.84 52.56C366.68 52.32 368.6 50.88 368.6 47.6399C368.6 43.0799 364.28 40.2 358.52 40.2C352.04 40.2 347.84 43.68 346.76 49.56L330.68 45.9599C332.36 35.2799 342.56 26.8799 358.4 26.8799C373.4 26.8799 384.8 34.5599 384.8 50.88V90H368.6V74.64C365.12 85.8 358.04 91.2 347.24 91.2C337.52 91.2 328.88 84.36 328.88 73.4399ZM345.08 72.1199C345.08 75.8399 348.08 78.36 353 78.36C361.52 78.36 368.6 71.52 368.6 64.08V62.52C367.52 63.48 365.84 63.96 363.08 64.32L352.64 65.52C347.96 66.12 345.08 68.5199 345.08 72.1199Z" fill="#00C978"/>
<path d="M402.08 69.96C402.8 75.6 406.76 78.36 413.12 78.36C419.84 78.36 424.04 75.48 424.04 71.88C424.04 60.24 387.68 71.16 387.68 46.44C387.68 35.28 398.6 26.8799 413.12 26.8799C427.88 26.8799 437.72 33.96 439.52 44.76L423.44 48.12C422.6 42.48 418.88 39.7199 413.12 39.7199C407.96 39.7199 404 42.12 404 45.72C404 57.4799 440.36 46.56 440.36 71.64C440.36 82.8 428.24 91.2 413.12 91.2C397.76 91.2 387.68 84.12 385.88 73.32L402.08 69.96Z" fill="#00C978"/>
<path d="M440.08 59.04C440.08 40.7999 454.12 26.8799 472.6 26.8799C493.36 26.8799 507.88 44.1599 504.52 64.7999H456.76C458.92 72.12 465.16 77.28 473.68 77.28C480.4 77.28 486.04 74.04 489.04 68.64L502.36 74.64C496.96 84.36 486.64 91.2 473.2 91.2C454.36 91.2 440.08 77.28 440.08 59.04ZM457 52.4399H488.32C486.16 45.4799 480.28 40.7999 472.6 40.7999C465.28 40.7999 459.28 45.4799 457 52.4399Z" fill="#00C978"/>
<path d="M73.148 59.524C73.148 40.98 87.666 26.828 106.82 26.828C120.24 26.828 131.708 34.026 137.076 46.836L121.948 52.082C119.142 45.616 113.53 41.956 106.82 41.956C97.426 41.956 90.228 49.52 90.228 59.524C90.228 69.65 97.426 77.092 106.82 77.092C113.53 77.092 119.142 73.432 121.948 66.966L137.076 72.212C131.708 85.022 120.24 92.22 106.82 92.22C87.666 92.22 73.148 78.068 73.148 59.524Z" fill="#00C978"/>
</svg>
